<svg xmlns="http://www.w3.org/2000/svg" version="1.1" xmlnsXlink="http://www.w3.org/1999/xlink" xmlnsSvgjs="http://svgjs.dev/svgjs" width="1000" height="370" viewBox="0 0 1000 370"><g transform="matrix(1,0,0,1,0.1066666666666265,0.42259874961359856)"><svg viewBox="0 0 375 139" data-background-color="#8abcd7" preserveAspectRatio="xMidYMid meet" height="370" width="1000" xmlns="http://www.w3.org/2000/svg" xmlnsXlink="http://www.w3.org/1999/xlink"><defs></defs><g id="tight-bounds" transform="matrix(1,0,0,1,-0.03976036071776434,-0.15876007080078125)"><svg viewBox="0 0 375.07952880859375 139.31752014160156" height="139.31752014160156" width="375.07952880859375"><g><svg></svg></g><g><svg viewBox="0 0 375.07952880859375 139.31752014160156" height="139.31752014160156" width="375.07952880859375"><g transform="matrix(1,0,0,1,-10.220239639282227,-57.01976013183594)"><path d="M10.22 190.18v-133.16h375.08v133.16h-33.131l0-3.164h29.967v-126.832h-368.751v126.832l126.253 0 0 3.164z" fill="#ffffff" data-fill-palette-color="tertiary"></path><path d="M157.824 182.126v0c0.291 0 0.587-0.027 0.888-0.082 0.301-0.052 0.568-0.127 0.801-0.224v0c-0.01 0.621-0.167 1.084-0.472 1.389-0.307 0.307-0.756 0.46-1.348 0.46v0c-0.282 0-0.594-0.024-0.938-0.073-0.346-0.049-0.785-0.131-1.319-0.247v0l-2.01 9.348h-2.096l2.067-9.639h-0.174c-0.942 0-1.633 0.24-2.074 0.719-0.443 0.481-0.664 1.222-0.664 2.222v0c0 0.184 0.013 0.345 0.038 0.48 0.023 0.136 0.064 0.267 0.122 0.394v0c0.019 0.039 0.032 0.065 0.038 0.078 0.004 0.016 0.006 0.028 0.006 0.038v0c-0.544 0-0.939-0.115-1.185-0.344-0.249-0.227-0.373-0.583-0.373-1.068v0c0-1.155 0.435-2.075 1.305-2.761 0.868-0.683 2.088-1.025 3.66-1.025v0c0.32 0 0.629 0.012 0.926 0.035 0.295 0.025 0.676 0.072 1.142 0.14v0c0.408 0.068 0.726 0.112 0.955 0.131 0.227 0.019 0.462 0.029 0.705 0.029zM159.586 191.139v0c0-0.175 0.021-0.393 0.064-0.655 0.045-0.262 0.135-0.68 0.271-1.252v0c0.136-0.553 0.223-0.951 0.262-1.194 0.039-0.243 0.058-0.447 0.058-0.612v0c0-0.243-0.046-0.427-0.137-0.553-0.093-0.126-0.227-0.189-0.402-0.19v0c-0.233 0-0.458 0.138-0.675 0.414-0.219 0.278-0.363 0.567-0.431 0.868v0l-1.005 4.732h-2.097l2.111-9.901 2.155-0.292-0.786 3.67c0.243-0.272 0.505-0.476 0.786-0.612 0.282-0.136 0.587-0.204 0.918-0.204v0c0.514 0 0.912 0.141 1.194 0.423 0.282 0.282 0.422 0.689 0.422 1.223v0c0 0.223-0.026 0.488-0.079 0.795-0.054 0.305-0.159 0.773-0.314 1.403v0c-0.126 0.495-0.209 0.845-0.248 1.049-0.039 0.204-0.058 0.374-0.058 0.509v0c0 0.204 0.049 0.356 0.146 0.458 0.097 0.103 0.243 0.154 0.437 0.154v0c0.243 0 0.451-0.083 0.626-0.248 0.175-0.165 0.374-0.51 0.597-1.033v0h0.611c-0.311 0.903-0.686 1.577-1.127 2.024-0.443 0.447-0.97 0.67-1.581 0.669v0c-0.544 0-0.966-0.149-1.267-0.445-0.301-0.295-0.451-0.695-0.451-1.2zM168.672 186.683v0c0 0.806-0.33 1.507-0.99 2.103-0.66 0.598-1.446 0.921-2.359 0.97v0c-0.01 0.165-0.017 0.288-0.024 0.37-0.004 0.083-0.006 0.154-0.005 0.212v0c0 0.447 0.075 0.762 0.224 0.947 0.151 0.184 0.426 0.277 0.824 0.276v0c0.456 0 0.876-0.105 1.258-0.314 0.384-0.208 0.824-0.593 1.319-1.156v0h0.495c-0.563 0.912-1.175 1.589-1.834 2.029-0.66 0.443-1.383 0.664-2.17 0.664v0c-0.747 0-1.312-0.194-1.695-0.582-0.384-0.388-0.577-0.966-0.576-1.733v0c0-0.553 0.087-1.141 0.262-1.762 0.175-0.621 0.408-1.175 0.699-1.66v0c0.359-0.582 0.789-1.022 1.29-1.319 0.499-0.295 1.059-0.443 1.68-0.443v0c0.534 0 0.935 0.114 1.203 0.341 0.266 0.229 0.399 0.581 0.399 1.057zM167.187 186.057v0c-0.33 0-0.662 0.293-0.996 0.88-0.336 0.588-0.586 1.295-0.752 2.12v0c0.563-0.039 1.056-0.299 1.48-0.781 0.421-0.48 0.632-1.02 0.632-1.622v0c0-0.204-0.029-0.354-0.088-0.451-0.058-0.097-0.15-0.146-0.276-0.146zM171.963 191.037v0c0-0.126 0.01-0.27 0.029-0.431 0.019-0.159 0.049-0.331 0.087-0.515v0l1.558-7.295 2.155-0.292-1.674 7.863c-0.019 0.087-0.034 0.167-0.044 0.239-0.01 0.074-0.015 0.149-0.015 0.227v0c0 0.194 0.047 0.332 0.14 0.414 0.091 0.083 0.244 0.125 0.457 0.125v0c0.272 0 0.529-0.119 0.772-0.358 0.243-0.237 0.422-0.545 0.539-0.923v0h0.611c-0.311 0.883-0.728 1.553-1.252 2.009-0.524 0.456-1.126 0.684-1.805 0.684v0c-0.485 0-0.866-0.153-1.142-0.46-0.278-0.305-0.416-0.734-0.416-1.287zM180.335 186.086v0 0.102l0.16-0.771h2.097l-1.048 4.95c-0.019 0.087-0.034 0.167-0.044 0.239-0.01 0.074-0.015 0.149-0.014 0.227v0c0 0.214 0.049 0.371 0.145 0.472 0.097 0.103 0.248 0.154 0.452 0.154v0c0.252 0 0.481-0.119 0.684-0.358 0.204-0.237 0.369-0.574 0.495-1.01v0h0.612c-0.311 0.893-0.713 1.566-1.209 2.018-0.495 0.45-1.068 0.676-1.718 0.675v0c-0.417 0-0.75-0.116-0.999-0.349-0.247-0.233-0.389-0.563-0.428-0.99v0c-0.301 0.447-0.634 0.781-0.999 1.005-0.363 0.223-0.753 0.335-1.171 0.334v0c-0.602 0-1.076-0.204-1.421-0.611-0.344-0.408-0.515-0.985-0.515-1.733v0c0-0.544 0.083-1.111 0.247-1.704 0.165-0.592 0.393-1.131 0.684-1.616v0c0.359-0.573 0.777-1.012 1.253-1.319 0.476-0.305 0.995-0.457 1.558-0.457v0c0.379 0 0.67 0.065 0.873 0.195 0.204 0.132 0.306 0.315 0.306 0.547zM179.505 190.091l0.699-3.291c0-0.146-0.053-0.275-0.16-0.388-0.107-0.111-0.252-0.166-0.437-0.166v0c-0.534 0-1.008 0.447-1.421 1.34-0.412 0.893-0.617 1.776-0.617 2.65v0c0 0.379 0.053 0.662 0.16 0.851 0.107 0.19 0.296 0.285 0.568 0.285v0c0.252 0 0.497-0.121 0.734-0.364 0.239-0.243 0.397-0.548 0.474-0.917zM187.805 190.265v0c0 0.116-0.005 0.218-0.015 0.306-0.01 0.087-0.024 0.17-0.043 0.248v0c0.194-0.116 0.383-0.238 0.568-0.364 0.184-0.126 0.345-0.248 0.48-0.364v0h0.612c-0.301 0.349-0.634 0.672-0.999 0.966-0.363 0.297-0.773 0.581-1.229 0.854v0c-0.262 0.282-0.597 0.497-1.005 0.646-0.408 0.151-0.835 0.227-1.281 0.227v0c-0.65 0-1.168-0.178-1.552-0.533-0.382-0.353-0.574-0.797-0.574-1.33v0c0-0.301 0.073-0.576 0.218-0.825 0.146-0.247 0.33-0.423 0.554-0.53v0c0.33-0.592 0.638-1.226 0.923-1.901 0.287-0.674 0.577-1.476 0.868-2.409v0l2.155-0.291c0.029 0.728 0.063 1.393 0.102 1.995 0.039 0.602 0.087 1.257 0.145 1.966v0c0.029 0.408 0.049 0.694 0.058 0.859 0.01 0.165 0.015 0.325 0.015 0.48zM185.417 186.829v0c-0.126 0.398-0.28 0.813-0.46 1.243-0.179 0.433-0.418 0.936-0.719 1.509v0c0.107 0.049 0.189 0.116 0.247 0.204 0.058 0.087 0.087 0.189 0.087 0.306v0c0 0.184-0.063 0.349-0.189 0.495-0.126 0.146-0.277 0.218-0.451 0.218v0c-0.097 0-0.18-0.017-0.248-0.052-0.068-0.033-0.116-0.079-0.145-0.137v0c0 0.359 0.07 0.618 0.209 0.777 0.142 0.161 0.368 0.242 0.679 0.242v0c0.398 0 0.709-0.116 0.932-0.349 0.223-0.233 0.335-0.568 0.335-1.005v0c0-0.136-0.005-0.275-0.015-0.417-0.01-0.14-0.029-0.375-0.058-0.704v0c-0.049-0.456-0.087-0.859-0.117-1.209-0.029-0.349-0.058-0.723-0.087-1.121zM189.188 185.999l0.117-0.582h0.48l0.437-2.01 2.155-0.291-0.495 2.301h0.874l-0.117 0.582h-0.873l-0.932 4.368c-0.019 0.087-0.034 0.167-0.044 0.239-0.01 0.074-0.015 0.149-0.015 0.227v0c0 0.194 0.047 0.332 0.14 0.414 0.091 0.083 0.244 0.125 0.457 0.125v0c0.272 0 0.529-0.119 0.772-0.358 0.243-0.237 0.422-0.545 0.539-0.923v0h0.611c-0.311 0.883-0.728 1.553-1.252 2.009-0.524 0.456-1.126 0.684-1.805 0.684v0c-0.485 0-0.866-0.153-1.142-0.46-0.278-0.305-0.416-0.734-0.416-1.287v0c0-0.126 0.01-0.27 0.029-0.431 0.019-0.159 0.049-0.331 0.087-0.515v0l0.874-4.092zM198.566 187.106l-0.86 4.077c0.039 0.107 0.107 0.189 0.204 0.247 0.097 0.058 0.214 0.087 0.35 0.088v0c0.612 0 1.104-0.393 1.476-1.18 0.375-0.786 0.562-1.699 0.562-2.737v0c0-0.398-0.058-0.699-0.174-0.903-0.116-0.204-0.301-0.306-0.554-0.306v0c-0.175 0-0.354 0.065-0.538 0.195-0.184 0.132-0.34 0.305-0.466 0.519zM197.474 192.26l-0.758 3.553-2.198 0.524 2.431-11.459h2.097l-0.233 1.092c0.243-0.204 0.505-0.359 0.786-0.466 0.282-0.107 0.587-0.16 0.918-0.16v0c0.582 0 1.024 0.194 1.325 0.582 0.301 0.388 0.451 0.961 0.451 1.718v0c0 1.485-0.318 2.713-0.955 3.684-0.635 0.971-1.51 1.456-2.627 1.456v0c-0.311 0-0.57-0.044-0.777-0.131-0.21-0.087-0.363-0.218-0.46-0.393zM202.541 191.037v0c0-0.126 0.01-0.27 0.029-0.431 0.019-0.159 0.049-0.331 0.087-0.515v0l1.558-7.295 2.155-0.292-1.674 7.863c-0.019 0.087-0.034 0.167-0.044 0.239-0.01 0.074-0.015 0.149-0.014 0.227v0c0 0.194 0.047 0.332 0.139 0.414 0.091 0.083 0.244 0.125 0.458 0.125v0c0.272 0 0.529-0.119 0.771-0.358 0.243-0.237 0.422-0.545 0.539-0.923v0h0.612c-0.311 0.883-0.728 1.553-1.253 2.009-0.524 0.456-1.126 0.684-1.805 0.684v0c-0.485 0-0.866-0.153-1.142-0.46-0.278-0.305-0.416-0.734-0.416-1.287zM210.913 186.086v0 0.102l0.16-0.771h2.097l-1.048 4.95c-0.019 0.087-0.034 0.167-0.044 0.239-0.01 0.074-0.015 0.149-0.014 0.227v0c0 0.214 0.049 0.371 0.145 0.472 0.097 0.103 0.248 0.154 0.452 0.154v0c0.252 0 0.481-0.119 0.684-0.358 0.204-0.237 0.369-0.574 0.495-1.01v0h0.612c-0.311 0.893-0.713 1.566-1.209 2.018-0.495 0.45-1.068 0.676-1.718 0.675v0c-0.417 0-0.749-0.116-0.996-0.349-0.249-0.233-0.392-0.563-0.431-0.99v0c-0.301 0.447-0.634 0.781-0.999 1.005-0.363 0.223-0.753 0.335-1.171 0.334v0c-0.602 0-1.076-0.204-1.421-0.611-0.344-0.408-0.515-0.985-0.515-1.733v0c0-0.544 0.083-1.111 0.247-1.704 0.165-0.592 0.393-1.131 0.685-1.616v0c0.359-0.573 0.777-1.012 1.252-1.319 0.476-0.305 0.995-0.457 1.558-0.457v0c0.379 0 0.67 0.065 0.874 0.195 0.204 0.132 0.306 0.315 0.305 0.547zM210.083 190.091l0.699-3.291c0-0.146-0.053-0.275-0.16-0.388-0.107-0.111-0.252-0.166-0.437-0.166v0c-0.534 0-1.008 0.447-1.421 1.34-0.412 0.893-0.617 1.776-0.617 2.65v0c0 0.379 0.053 0.662 0.16 0.851 0.107 0.19 0.296 0.285 0.568 0.285v0c0.252 0 0.497-0.121 0.734-0.364 0.239-0.243 0.397-0.548 0.474-0.917zM216.272 191.372v0c0.243 0 0.461-0.102 0.655-0.306 0.194-0.204 0.354-0.5 0.481-0.888v0l1.019-4.761h2.097l-1.442 6.756c0.485-0.175 0.867-0.42 1.145-0.737 0.276-0.315 0.506-0.763 0.69-1.345v0h0.611c-0.223 0.738-0.541 1.33-0.952 1.776-0.414 0.447-0.955 0.762-1.625 0.947v0l-0.218 1.048c-0.175 0.815-0.481 1.432-0.918 1.849-0.437 0.417-1.005 0.626-1.703 0.626v0c-0.495 0-0.891-0.126-1.189-0.378-0.295-0.252-0.443-0.597-0.442-1.034v0c0-0.476 0.196-0.895 0.588-1.258 0.394-0.365 0.989-0.669 1.785-0.912v0l0.175-0.786c-0.243 0.272-0.508 0.476-0.795 0.612-0.285 0.136-0.603 0.204-0.952 0.203v0c-0.485 0-0.866-0.153-1.142-0.46-0.278-0.305-0.416-0.734-0.416-1.287v0c0-0.126 0.01-0.27 0.029-0.431 0.019-0.159 0.049-0.331 0.087-0.515v0l0.99-4.675h2.097l-1.048 4.951c-0.01 0.058-0.019 0.118-0.029 0.181-0.01 0.064-0.015 0.125-0.015 0.183v0c0 0.204 0.036 0.361 0.108 0.472 0.074 0.113 0.183 0.169 0.329 0.169zM216.621 193.906l0.088-0.423c-0.485 0.184-0.845 0.376-1.078 0.574-0.233 0.2-0.349 0.421-0.349 0.664v0c0 0.126 0.049 0.238 0.145 0.335 0.097 0.097 0.214 0.146 0.35 0.146v0c0.165 0 0.325-0.116 0.48-0.35 0.155-0.233 0.277-0.548 0.364-0.946zM220.8 191.037v0c0-0.126 0.01-0.27 0.029-0.431 0.019-0.159 0.049-0.331 0.088-0.515v0l1.558-7.295 2.155-0.292-1.675 7.863c-0.019 0.087-0.034 0.167-0.043 0.239-0.01 0.074-0.015 0.149-0.015 0.227v0c0 0.194 0.047 0.332 0.14 0.414 0.091 0.083 0.244 0.125 0.457 0.125v0c0.272 0 0.529-0.119 0.772-0.358 0.243-0.237 0.422-0.545 0.539-0.923v0h0.611c-0.311 0.883-0.728 1.553-1.252 2.009-0.524 0.456-1.126 0.684-1.806 0.684v0c-0.485 0-0.866-0.153-1.141-0.46-0.278-0.305-0.416-0.734-0.417-1.287zM228.328 183.48v0c0 0.32-0.114 0.592-0.34 0.815-0.229 0.223-0.504 0.335-0.825 0.335v0c-0.32 0-0.592-0.112-0.815-0.335-0.223-0.223-0.335-0.495-0.335-0.815v0c0-0.32 0.112-0.595 0.335-0.824 0.223-0.227 0.495-0.341 0.815-0.341v0c0.32 0 0.595 0.114 0.825 0.341 0.227 0.229 0.341 0.504 0.34 0.824zM224.615 191.037v0c0-0.126 0.01-0.27 0.029-0.431 0.019-0.159 0.049-0.331 0.088-0.515v0l0.99-4.674h2.097l-1.049 4.95c-0.019 0.087-0.034 0.167-0.043 0.239-0.01 0.074-0.015 0.149-0.015 0.227v0c0 0.194 0.047 0.332 0.14 0.414 0.091 0.083 0.244 0.125 0.457 0.125v0c0.272 0 0.529-0.119 0.772-0.358 0.243-0.237 0.422-0.545 0.539-0.923v0h0.611c-0.311 0.883-0.728 1.553-1.252 2.009-0.524 0.456-1.126 0.684-1.806 0.684v0c-0.485 0-0.866-0.153-1.141-0.46-0.278-0.305-0.416-0.734-0.417-1.287zM233.192 190.265v0c0 0.116-0.005 0.218-0.015 0.306-0.01 0.087-0.024 0.17-0.044 0.248v0c0.194-0.116 0.383-0.238 0.568-0.364 0.184-0.126 0.345-0.248 0.481-0.364v0h0.611c-0.301 0.349-0.633 0.672-0.996 0.966-0.365 0.297-0.776 0.581-1.231 0.854v0c-0.262 0.282-0.597 0.497-1.005 0.646-0.408 0.151-0.835 0.227-1.282 0.227v0c-0.65 0-1.167-0.178-1.549-0.533-0.384-0.353-0.577-0.797-0.576-1.33v0c0-0.301 0.073-0.576 0.218-0.825 0.146-0.247 0.33-0.423 0.553-0.53v0c0.33-0.592 0.639-1.226 0.926-1.901 0.285-0.674 0.574-1.476 0.865-2.409v0l2.155-0.291c0.029 0.728 0.063 1.393 0.102 1.995 0.039 0.602 0.087 1.257 0.146 1.966v0c0.029 0.408 0.049 0.694 0.058 0.859 0.01 0.165 0.015 0.325 0.015 0.48zM230.804 186.829v0c-0.126 0.398-0.279 0.813-0.458 1.243-0.181 0.433-0.421 0.936-0.722 1.509v0c0.107 0.049 0.189 0.116 0.248 0.204 0.058 0.087 0.087 0.189 0.087 0.306v0c0 0.184-0.063 0.349-0.189 0.495-0.126 0.146-0.277 0.218-0.452 0.218v0c-0.097 0-0.18-0.017-0.247-0.052-0.068-0.033-0.116-0.079-0.146-0.137v0c0 0.359 0.071 0.618 0.213 0.777 0.14 0.161 0.365 0.242 0.676 0.242v0c0.398 0 0.709-0.116 0.931-0.349 0.223-0.233 0.335-0.568 0.335-1.005v0c0-0.136-0.005-0.275-0.014-0.417-0.01-0.14-0.029-0.375-0.058-0.704v0c-0.049-0.456-0.087-0.859-0.117-1.209-0.029-0.349-0.058-0.723-0.087-1.121zM234.575 185.999l0.116-0.582h0.481l0.437-2.01 2.155-0.291-0.495 2.301h0.873l-0.116 0.582h-0.874l-0.932 4.368c-0.019 0.087-0.034 0.167-0.043 0.239-0.01 0.074-0.015 0.149-0.015 0.227v0c0 0.194 0.047 0.332 0.14 0.414 0.091 0.083 0.244 0.125 0.457 0.125v0c0.272 0 0.529-0.119 0.772-0.358 0.243-0.237 0.422-0.545 0.539-0.923v0h0.611c-0.311 0.883-0.728 1.553-1.252 2.009-0.524 0.456-1.126 0.684-1.806 0.684v0c-0.485 0-0.866-0.153-1.141-0.46-0.278-0.305-0.416-0.734-0.417-1.287v0c0-0.126 0.01-0.27 0.029-0.431 0.019-0.159 0.049-0.331 0.088-0.515v0l0.873-4.092zM243.661 191.372v0c0.243 0 0.461-0.102 0.655-0.306 0.194-0.204 0.354-0.5 0.481-0.888v0l1.019-4.761h2.097l-1.442 6.756c0.485-0.175 0.867-0.42 1.145-0.737 0.276-0.315 0.506-0.763 0.69-1.345v0h0.612c-0.223 0.738-0.541 1.33-0.953 1.776-0.414 0.447-0.955 0.762-1.625 0.947v0l-0.218 1.048c-0.175 0.815-0.481 1.432-0.917 1.849-0.437 0.417-1.005 0.626-1.704 0.626v0c-0.495 0-0.89-0.126-1.185-0.378-0.297-0.252-0.446-0.597-0.446-1.034v0c0-0.476 0.197-0.895 0.591-1.258 0.392-0.365 0.986-0.669 1.782-0.912v0l0.175-0.786c-0.243 0.272-0.507 0.476-0.792 0.612-0.287 0.136-0.606 0.204-0.955 0.203v0c-0.485 0-0.866-0.153-1.142-0.46-0.278-0.305-0.416-0.734-0.416-1.287v0c0-0.126 0.01-0.27 0.029-0.431 0.019-0.159 0.049-0.331 0.087-0.515v0l0.991-4.675h2.096l-1.048 4.951c-0.01 0.058-0.019 0.118-0.029 0.181-0.01 0.064-0.015 0.125-0.015 0.183v0c0 0.204 0.037 0.361 0.111 0.472 0.072 0.113 0.181 0.169 0.326 0.169zM244.011 193.906l0.087-0.423c-0.485 0.184-0.845 0.376-1.078 0.574-0.233 0.2-0.349 0.421-0.349 0.664v0c0 0.126 0.049 0.238 0.146 0.335 0.097 0.097 0.214 0.146 0.349 0.146v0c0.165 0 0.325-0.116 0.48-0.35 0.155-0.233 0.277-0.548 0.365-0.946zM248.102 190.455v0c0-0.553 0.09-1.141 0.271-1.762 0.179-0.621 0.423-1.175 0.734-1.66v0c0.359-0.573 0.791-1.008 1.296-1.305 0.505-0.295 1.068-0.443 1.689-0.443v0c0.621 0 1.087 0.194 1.398 0.583 0.311 0.388 0.466 0.971 0.466 1.747v0c0.019 0.01 0.042 0.017 0.067 0.021 0.023 0.006 0.054 0.009 0.093 0.008v0c0.301 0 0.66-0.083 1.077-0.247 0.417-0.165 0.806-0.374 1.165-0.626v0l0.131 0.393c-0.272 0.291-0.633 0.544-1.083 0.757-0.452 0.214-0.95 0.364-1.494 0.451v0c-0.116 1.31-0.495 2.369-1.136 3.175-0.641 0.806-1.422 1.209-2.344 1.208v0c-0.757 0-1.335-0.194-1.733-0.582-0.398-0.388-0.597-0.961-0.597-1.718zM252.208 186.174v0c-0.466 0-0.905 0.471-1.316 1.412-0.414 0.942-0.62 1.835-0.62 2.679v0c0 0.456 0.051 0.767 0.154 0.932 0.101 0.165 0.297 0.248 0.588 0.248v0c0.359 0 0.702-0.291 1.028-0.874 0.324-0.582 0.545-1.301 0.661-2.155v0c-0.136-0.029-0.235-0.095-0.297-0.198-0.064-0.101-0.096-0.239-0.096-0.413v0c0-0.184 0.039-0.345 0.117-0.481 0.078-0.136 0.189-0.238 0.335-0.306v0c-0.019-0.311-0.07-0.529-0.152-0.655-0.083-0.126-0.217-0.189-0.402-0.189zM257.13 191.372v0c0.252 0 0.479-0.11 0.679-0.329 0.198-0.217 0.36-0.535 0.486-0.952v0l0.99-4.674h2.097l-1.049 4.95c-0.019 0.087-0.034 0.167-0.043 0.239-0.01 0.074-0.015 0.149-0.015 0.227v0c0 0.194 0.047 0.332 0.14 0.414 0.091 0.083 0.244 0.125 0.457 0.125v0c0.252 0 0.481-0.112 0.685-0.335 0.204-0.223 0.369-0.539 0.495-0.946v0h0.611c-0.311 0.893-0.713 1.566-1.208 2.018-0.495 0.45-1.068 0.676-1.719 0.675v0c-0.417 0-0.752-0.119-1.004-0.358-0.252-0.237-0.398-0.579-0.437-1.025v0c-0.282 0.466-0.599 0.813-0.952 1.04-0.355 0.229-0.756 0.344-1.203 0.343v0c-0.485 0-0.866-0.153-1.142-0.46-0.278-0.305-0.416-0.734-0.416-1.287v0c0-0.126 0.01-0.27 0.029-0.431 0.019-0.159 0.049-0.331 0.087-0.515v0l0.99-4.674h2.097l-1.048 4.95c-0.019 0.078-0.031 0.148-0.035 0.21-0.006 0.064-0.009 0.13-0.009 0.198v0c0 0.194 0.037 0.342 0.111 0.443 0.072 0.103 0.181 0.154 0.326 0.154zM265.095 191.037v0c0-0.126 0.01-0.27 0.029-0.431 0.019-0.159 0.049-0.331 0.087-0.515v0l0.991-4.674h2.096l-1.048 4.95c-0.01 0.058-0.019 0.118-0.029 0.181-0.01 0.064-0.015 0.125-0.015 0.183v0c0 0.204 0.037 0.361 0.111 0.472 0.072 0.113 0.181 0.169 0.326 0.169v0c0.252 0 0.479-0.11 0.679-0.329 0.198-0.217 0.36-0.535 0.486-0.952v0l0.99-4.674h2.097l-1.049 4.95c-0.019 0.107-0.036 0.206-0.049 0.297-0.016 0.093-0.023 0.169-0.023 0.227v0c0 0.155 0.042 0.274 0.125 0.356 0.082 0.083 0.205 0.125 0.37 0.125v0c0.34 0 0.673-0.178 0.999-0.533 0.324-0.353 0.617-0.855 0.879-1.506v0c0.194-0.466 0.349-0.956 0.466-1.47 0.116-0.514 0.175-0.966 0.175-1.354v0c-0.019 0.039-0.08 0.073-0.181 0.102-0.103 0.029-0.198 0.044-0.285 0.043v0c-0.155 0-0.282-0.076-0.379-0.227-0.097-0.149-0.146-0.321-0.145-0.515v0c0-0.243 0.081-0.435 0.241-0.577 0.159-0.14 0.38-0.21 0.661-0.21v0c0.301 0 0.529 0.112 0.685 0.335 0.155 0.223 0.233 0.534 0.233 0.932v0c0 0.66-0.084 1.351-0.254 2.074-0.171 0.724-0.402 1.382-0.693 1.974v0c-0.388 0.767-0.854 1.349-1.398 1.747-0.544 0.398-1.145 0.597-1.805 0.597v0c-0.485 0-0.876-0.105-1.171-0.314-0.297-0.208-0.489-0.511-0.576-0.909v0c-0.282 0.408-0.589 0.713-0.924 0.918-0.336 0.204-0.717 0.306-1.144 0.305v0c-0.485 0-0.866-0.153-1.142-0.46-0.278-0.305-0.416-0.734-0.416-1.287zM278.549 183.48v0c0 0.32-0.114 0.592-0.34 0.815-0.229 0.223-0.504 0.335-0.825 0.335v0c-0.32 0-0.592-0.112-0.815-0.335-0.223-0.223-0.335-0.495-0.335-0.815v0c0-0.32 0.112-0.595 0.335-0.824 0.223-0.227 0.495-0.341 0.815-0.341v0c0.32 0 0.595 0.114 0.825 0.341 0.227 0.229 0.341 0.504 0.34 0.824zM274.836 191.037v0c0-0.126 0.01-0.27 0.029-0.431 0.019-0.159 0.049-0.331 0.088-0.515v0l0.99-4.674h2.097l-1.049 4.95c-0.019 0.087-0.034 0.167-0.043 0.239-0.01 0.074-0.015 0.149-0.015 0.227v0c0 0.194 0.047 0.332 0.14 0.414 0.091 0.083 0.244 0.125 0.457 0.125v0c0.272 0 0.529-0.119 0.772-0.358 0.243-0.237 0.422-0.545 0.539-0.923v0h0.611c-0.311 0.883-0.728 1.553-1.252 2.009-0.524 0.456-1.126 0.684-1.806 0.684v0c-0.485 0-0.866-0.153-1.141-0.46-0.278-0.305-0.416-0.734-0.417-1.287zM278.724 191.037v0c0-0.126 0.01-0.27 0.029-0.431 0.019-0.159 0.049-0.331 0.087-0.515v0l1.559-7.295 2.155-0.292-1.675 7.863c-0.019 0.087-0.034 0.167-0.044 0.239-0.01 0.074-0.015 0.149-0.014 0.227v0c0 0.194 0.047 0.332 0.14 0.414 0.091 0.083 0.244 0.125 0.457 0.125v0c0.272 0 0.529-0.119 0.772-0.358 0.243-0.237 0.422-0.545 0.538-0.923v0h0.612c-0.311 0.883-0.728 1.553-1.252 2.009-0.524 0.456-1.126 0.684-1.806 0.684v0c-0.485 0-0.866-0.153-1.142-0.46-0.278-0.305-0.416-0.734-0.416-1.287zM282.612 191.037v0c0-0.126 0.01-0.27 0.029-0.431 0.019-0.159 0.049-0.331 0.087-0.515v0l1.558-7.295 2.155-0.292-1.674 7.863c-0.019 0.087-0.034 0.167-0.044 0.239-0.01 0.074-0.015 0.149-0.014 0.227v0c0 0.194 0.047 0.332 0.139 0.414 0.091 0.083 0.244 0.125 0.458 0.125v0c0.272 0 0.529-0.119 0.771-0.358 0.243-0.237 0.422-0.545 0.539-0.923v0h0.612c-0.311 0.883-0.728 1.553-1.253 2.009-0.524 0.456-1.126 0.684-1.805 0.684v0c-0.485 0-0.866-0.153-1.142-0.46-0.278-0.305-0.416-0.734-0.416-1.287zM295.12 186.683v0c0 0.806-0.33 1.507-0.99 2.103-0.66 0.598-1.446 0.921-2.359 0.97v0c-0.01 0.165-0.017 0.288-0.021 0.37-0.006 0.083-0.009 0.154-0.008 0.212v0c0 0.447 0.076 0.762 0.227 0.947 0.149 0.184 0.423 0.277 0.821 0.276v0c0.456 0 0.877-0.105 1.261-0.314 0.382-0.208 0.821-0.593 1.316-1.156v0h0.495c-0.563 0.912-1.175 1.589-1.834 2.029-0.66 0.443-1.383 0.664-2.17 0.664v0c-0.747 0-1.312-0.194-1.695-0.582-0.384-0.388-0.577-0.966-0.577-1.733v0c0-0.553 0.087-1.141 0.263-1.762 0.175-0.621 0.408-1.175 0.699-1.66v0c0.359-0.582 0.789-1.022 1.29-1.319 0.499-0.295 1.059-0.443 1.68-0.443v0c0.534 0 0.935 0.114 1.203 0.341 0.266 0.229 0.399 0.581 0.399 1.057zM293.634 186.057v0c-0.33 0-0.662 0.293-0.995 0.88-0.336 0.588-0.586 1.295-0.752 2.12v0c0.563-0.039 1.056-0.299 1.48-0.781 0.421-0.48 0.632-1.02 0.632-1.622v0c0-0.204-0.029-0.354-0.088-0.451-0.058-0.097-0.15-0.146-0.277-0.146zM299.881 186.654v0c-0.155 0-0.282-0.076-0.378-0.227-0.097-0.149-0.146-0.321-0.146-0.515v0c0-0.243 0.081-0.435 0.242-0.577 0.159-0.14 0.38-0.21 0.661-0.21v0c0.301 0 0.529 0.112 0.684 0.335 0.155 0.223 0.233 0.534 0.233 0.932v0c0 0.66-0.084 1.351-0.253 2.074-0.171 0.724-0.402 1.382-0.693 1.974v0c-0.388 0.767-0.854 1.349-1.398 1.747-0.544 0.398-1.145 0.597-1.806 0.597v0c-0.573 0-1.014-0.149-1.325-0.445-0.311-0.295-0.466-0.719-0.466-1.273v0c0-0.107 0.008-0.221 0.024-0.343 0.014-0.12 0.03-0.239 0.049-0.356v0l1.048-4.95h2.097l-1.048 4.95c-0.019 0.107-0.036 0.206-0.05 0.297-0.016 0.093-0.023 0.169-0.023 0.227v0c0 0.155 0.042 0.274 0.125 0.356 0.082 0.083 0.205 0.125 0.37 0.125v0c0.34 0 0.673-0.178 0.999-0.533 0.324-0.353 0.617-0.855 0.879-1.506v0c0.194-0.466 0.349-0.956 0.466-1.47 0.116-0.514 0.175-0.966 0.175-1.354v0c-0.019 0.039-0.08 0.073-0.18 0.102-0.103 0.029-0.198 0.044-0.286 0.043zM306.769 186.683v0c0 0.806-0.33 1.507-0.991 2.103-0.66 0.598-1.446 0.921-2.359 0.97v0c-0.01 0.165-0.017 0.288-0.02 0.37-0.006 0.083-0.009 0.154-0.009 0.212v0c0 0.447 0.076 0.762 0.228 0.947 0.149 0.184 0.423 0.277 0.821 0.276v0c0.456 0 0.877-0.105 1.261-0.314 0.382-0.208 0.821-0.593 1.316-1.156v0h0.495c-0.563 0.912-1.175 1.589-1.835 2.029-0.66 0.443-1.383 0.664-2.169 0.664v0c-0.747 0-1.312-0.194-1.695-0.582-0.384-0.388-0.577-0.966-0.577-1.733v0c0-0.553 0.087-1.141 0.262-1.762 0.175-0.621 0.408-1.175 0.699-1.66v0c0.359-0.582 0.789-1.022 1.29-1.319 0.499-0.295 1.059-0.443 1.681-0.443v0c0.534 0 0.935 0.114 1.203 0.341 0.266 0.229 0.399 0.581 0.399 1.057zM305.283 186.057v0c-0.33 0-0.662 0.293-0.996 0.88-0.336 0.588-0.586 1.295-0.751 2.12v0c0.563-0.039 1.056-0.299 1.479-0.781 0.421-0.48 0.632-1.02 0.632-1.622v0c0-0.204-0.029-0.354-0.087-0.451-0.058-0.097-0.15-0.146-0.277-0.146zM309.739 187.164l-1.165 5.533h-2.097l1.544-7.28h2.097l-0.19 0.902c0.427-0.359 0.765-0.6 1.014-0.722 0.247-0.12 0.496-0.181 0.748-0.18v0c0.301 0 0.544 0.104 0.728 0.311 0.184 0.21 0.277 0.47 0.277 0.781v0c0 0.301-0.097 0.553-0.291 0.757-0.194 0.204-0.447 0.306-0.758 0.306v0c-0.165 0-0.293-0.039-0.384-0.117-0.093-0.078-0.159-0.238-0.198-0.48v0c-0.029-0.155-0.063-0.255-0.102-0.3-0.039-0.043-0.092-0.064-0.16-0.064v0c-0.165 0-0.32 0.034-0.466 0.101-0.146 0.068-0.345 0.218-0.597 0.452zM319.204 191.139v0c0-0.175 0.022-0.393 0.067-0.655 0.043-0.262 0.132-0.68 0.268-1.252v0c0.136-0.553 0.223-0.951 0.262-1.194 0.039-0.243 0.058-0.447 0.058-0.612v0c0-0.243-0.044-0.427-0.131-0.553-0.087-0.126-0.218-0.189-0.393-0.19v0c-0.233 0-0.448 0.118-0.647 0.356-0.2 0.239-0.363 0.567-0.489 0.984v0l-0.99 4.674h-2.097l1.543-7.28h2.097l-0.16 0.757c0.243-0.272 0.505-0.476 0.786-0.612 0.282-0.136 0.587-0.204 0.918-0.204v0c0.514 0 0.912 0.141 1.194 0.423 0.282 0.282 0.422 0.689 0.422 1.223v0c0 0.223-0.026 0.488-0.079 0.795-0.054 0.305-0.159 0.773-0.314 1.403v0c-0.126 0.495-0.209 0.845-0.248 1.049-0.039 0.204-0.058 0.374-0.058 0.509v0c0 0.204 0.049 0.356 0.146 0.458 0.097 0.103 0.243 0.154 0.436 0.154v0c0.243 0 0.451-0.083 0.627-0.248 0.175-0.165 0.374-0.51 0.597-1.033v0h0.611c-0.311 0.903-0.686 1.577-1.127 2.024-0.443 0.447-0.97 0.67-1.581 0.669v0c-0.544 0-0.966-0.149-1.267-0.445-0.301-0.295-0.451-0.695-0.451-1.2zM328.494 186.683v0c0 0.806-0.33 1.507-0.991 2.103-0.66 0.598-1.446 0.921-2.358 0.97v0c-0.01 0.165-0.017 0.288-0.021 0.37-0.006 0.083-0.009 0.154-0.009 0.212v0c0 0.447 0.076 0.762 0.228 0.947 0.149 0.184 0.423 0.277 0.821 0.276v0c0.456 0 0.877-0.105 1.261-0.314 0.382-0.208 0.821-0.593 1.316-1.156v0h0.495c-0.563 0.912-1.175 1.589-1.835 2.029-0.66 0.443-1.383 0.664-2.169 0.664v0c-0.747 0-1.312-0.194-1.695-0.582-0.384-0.388-0.577-0.966-0.577-1.733v0c0-0.553 0.087-1.141 0.262-1.762 0.175-0.621 0.408-1.175 0.699-1.66v0c0.359-0.582 0.789-1.022 1.29-1.319 0.499-0.295 1.059-0.443 1.681-0.443v0c0.534 0 0.935 0.114 1.203 0.341 0.266 0.229 0.399 0.581 0.399 1.057zM327.008 186.057v0c-0.33 0-0.662 0.293-0.996 0.88-0.336 0.588-0.586 1.295-0.751 2.12v0c0.563-0.039 1.056-0.299 1.479-0.781 0.421-0.48 0.632-1.02 0.632-1.622v0c0-0.204-0.029-0.354-0.087-0.451-0.058-0.097-0.15-0.146-0.277-0.146zM334.085 186.683v0c0 0.806-0.33 1.507-0.99 2.103-0.66 0.598-1.446 0.921-2.359 0.97v0c-0.01 0.165-0.017 0.288-0.02 0.37-0.006 0.083-0.009 0.154-0.009 0.212v0c0 0.447 0.076 0.762 0.227 0.947 0.149 0.184 0.423 0.277 0.821 0.276v0c0.456 0 0.877-0.105 1.261-0.314 0.382-0.208 0.821-0.593 1.317-1.156v0h0.495c-0.563 0.912-1.175 1.589-1.835 2.029-0.66 0.443-1.383 0.664-2.17 0.664v0c-0.747 0-1.312-0.194-1.695-0.582-0.384-0.388-0.577-0.966-0.576-1.733v0c0-0.553 0.087-1.141 0.262-1.762 0.175-0.621 0.408-1.175 0.699-1.66v0c0.359-0.582 0.789-1.022 1.29-1.319 0.499-0.295 1.059-0.443 1.68-0.443v0c0.534 0 0.935 0.114 1.203 0.341 0.266 0.229 0.399 0.581 0.399 1.057zM332.6 186.057v0c-0.33 0-0.662 0.293-0.996 0.88-0.336 0.588-0.586 1.295-0.752 2.12v0c0.563-0.039 1.056-0.299 1.48-0.781 0.421-0.48 0.632-1.02 0.632-1.622v0c0-0.204-0.029-0.354-0.088-0.451-0.058-0.097-0.15-0.146-0.276-0.146zM336.386 190.236v0c0 0.379 0.053 0.662 0.16 0.851 0.107 0.19 0.296 0.285 0.568 0.285v0c0.243 0 0.481-0.115 0.713-0.344 0.233-0.227 0.393-0.515 0.481-0.865v0-0.072l0.713-3.335c-0.029-0.155-0.094-0.28-0.195-0.373-0.103-0.091-0.237-0.137-0.402-0.136v0c-0.534 0-1.007 0.447-1.418 1.339-0.414 0.893-0.62 1.776-0.62 2.65zM339.152 186.086v0 0.059l0.714-3.349 2.155-0.292-1.675 7.863c-0.019 0.087-0.034 0.167-0.043 0.239-0.01 0.074-0.015 0.149-0.015 0.227v0c0 0.194 0.047 0.332 0.14 0.414 0.091 0.083 0.244 0.125 0.457 0.125v0c0.252 0 0.481-0.112 0.684-0.335 0.204-0.223 0.369-0.539 0.495-0.946v0h0.612c-0.301 0.864-0.691 1.514-1.171 1.951-0.481 0.437-1.067 0.655-1.756 0.655v0c-0.398 0-0.72-0.11-0.967-0.329-0.249-0.217-0.402-0.525-0.46-0.923v0c-0.291 0.447-0.616 0.781-0.975 1.004-0.359 0.223-0.752 0.335-1.18 0.335v0c-0.602 0-1.075-0.204-1.418-0.611-0.346-0.408-0.518-0.985-0.518-1.733v0c0-0.544 0.083-1.111 0.247-1.704 0.165-0.592 0.393-1.131 0.685-1.616v0c0.359-0.573 0.777-1.012 1.252-1.319 0.476-0.305 0.995-0.457 1.558-0.457v0c0.379 0 0.67 0.065 0.873 0.195 0.204 0.132 0.306 0.315 0.306 0.547z" fill="#ffffff" data-fill-palette-color="secondary"></path></g><g transform="matrix(1,0,0,1,29.331764404296877,45.41299889919402)"><svg viewBox="0 0 316.416 48.491522343213525" height="48.491522343213525" width="316.416"><g><svg viewBox="0 0 385.6057491606549 59.09501985075182" height="48.491522343213525" width="316.416"><g transform="matrix(1,0,0,1,0,8.167256723222575)"><svg viewBox="0 0 316.416 42.76050640430667" height="42.76050640430667" width="316.416"><g><svg viewBox="0 0 316.416 42.76050640430667" height="42.76050640430667" width="316.416"><g><svg viewBox="0 0 316.416 42.76050640430667" height="42.76050640430667" width="316.416"><g transform="matrix(1,0,0,1,0,0)"><svg width="316.416" viewBox="0.45000001788139343 -35.70000076293945 269.3199768066406 36.400001525878906" height="42.76050640430667" data-palette-color="#ffffff"><path d="M8.85 0L8.85-29.4 0.45-29.4 0.45-35 23.35-35 23.35-29.4 14.95-29.4 14.95 0 8.85 0ZM27.1 0L27.1-35 33.2-35 33.2-21.15 46.2-21.15 46.2-35 52.3-35 52.3 0 46.2 0 46.2-15.15 33.2-15.15 33.2 0 27.1 0ZM58.89 0L58.89-35 78.55-35 78.55-29.4 65-29.4 65-21.15 75.44-21.15 75.44-15.55 65-15.55 65-5.6 79-5.6 79 0 58.89 0ZM93.09 0L93.09-35 103.29-35Q108.74-35 111.89-32.08 115.04-29.15 115.04-23.4L115.04-23.4Q115.04-17.65 111.89-14.73 108.74-11.8 103.29-11.8L103.29-11.8 99.19-11.8 99.19 0 93.09 0ZM99.19-17.1L102.74-17.1Q105.69-17.1 107.22-18.55 108.74-20 108.74-23.4L108.74-23.4Q108.74-26.6 107.17-28.15 105.59-29.7 102.74-29.7L102.74-29.7 99.19-29.7 99.19-17.1ZM119.34 0L119.34-35 125.44-35 125.44-5.6 137.24-5.6 137.24 0 119.34 0ZM158.29 0L155.89-8.35 145.94-8.35 143.54 0 137.44 0 148.09-35 153.69-35 164.39 0 158.29 0ZM147.54-13.95L154.29-13.95 150.89-25.8 147.54-13.95ZM181.38-35L187.88-35 177.38-15.5 177.38 0 171.33 0 171.33-15.5 160.83-35 167.33-35 174.38-21.15 181.38-35ZM190.78 0L190.78-35 196.88-35 196.88-5.6 208.68-5.6 208.68 0 190.78 0ZM211.98 0L211.98-35 218.08-35 218.08 0 211.98 0ZM233.18 0.7Q230.48 0.7 227.8 0.13 225.13-0.45 223.13-1.45L223.13-1.45 223.88-8.25Q228.98-5.45 233.58-5.45L233.58-5.45Q235.98-5.45 237.33-6.43 238.68-7.4 238.68-9.2L238.68-9.2Q238.68-10.55 238-11.53 237.33-12.5 235.85-13.43 234.38-14.35 231.63-15.6L231.63-15.6Q227.18-17.6 225.15-19.85 223.13-22.1 223.13-25.75L223.13-25.75Q223.13-28.65 224.53-30.9 225.93-33.15 228.58-34.43 231.23-35.7 234.88-35.7L234.88-35.7Q239.43-35.7 243.98-33.65L243.98-33.65 243.33-27.05Q240.78-28.3 238.65-28.93 236.53-29.55 234.38-29.55L234.38-29.55Q232.08-29.55 230.85-28.65 229.63-27.75 229.63-26L229.63-26Q229.63-24.65 230.43-23.73 231.23-22.8 232.4-22.13 233.58-21.45 236.68-20L236.68-20Q241.13-17.85 243.15-15.5 245.18-13.15 245.18-9.45L245.18-9.45Q245.18-4.8 241.98-2.05 238.78 0.7 233.18 0.7L233.18 0.7ZM255.27 0L255.27-29.4 246.87-29.4 246.87-35 269.77-35 269.77-29.4 261.37-29.4 261.37 0 255.27 0Z" opacity="1" transform="matrix(1,0,0,1,0,0)" fill="#ffffff" class="undefined-text-0" data-fill-palette-color="primary" id="text-0"></path></svg></g></svg></g></svg></g></svg></g><g transform="matrix(1,0,0,1,326.5107293099031,0)"><svg viewBox="0 0 59.09501985075182 59.09501985075182" height="59.09501985075182" width="59.09501985075182"><g data-palette-color="#ffffff"><rect width="16.152638759205498" height="59.09501985075182" fill="#ffffff" stroke="transparent" data-fill-palette-color="accent" x="0" fill-opacity="1"></rect><rect width="16.152638759205498" height="59.09501985075182" fill="#ffffff" stroke="transparent" data-fill-palette-color="accent" x="19.698339950250606" fill-opacity="0.75"></rect><rect width="16.152638759205498" height="59.09501985075182" fill="#ffffff" stroke="transparent" data-fill-palette-color="accent" x="39.39667990050121" fill-opacity="0.5"></rect></g></svg></g></svg></g></svg></g></svg></g></svg><rect width="375.07952880859375" height="139.31752014160156" fill="none" stroke="none" visibility="hidden"></rect></g></svg></g></svg>